<svg xmlns="http://www.w3.org/2000/svg" width="69.639" height="69.639" viewBox="0 0 69.639 69.639">
  <path id="Icon_awesome-plus" data-name="Icon awesome-plus" d="M65.493,34.583H37.307V7.224c0-2.747,2.747-4.974,0-4.974H32.333c-2.747,0,0,2.228,0,4.974V34.583H5.625c-2.747,0-5.625-2.747-5.625,0v4.974c0,2.747,2.228,0,4.974,0H32.333V66.915c0,2.747-2.747,4.974,0,4.974h4.974c2.747,0,0-2.228,0-4.974V39.557H64.665c2.747,0,4.974,2.747,4.974,0V34.583C69.639,31.836,68.24,34.583,65.493,34.583Z" transform="translate(0 -2.25)" fill="#0298ff"/>
</svg>
